# xmcd CD database file
#
# Track frame offsets:
#	150
#	19797
#	39440
#	59087
#
# Disc length: 1043 seconds
#
# Revision: 1
# Processed by: cddbd v1.5PL3 Copyright (c) Steve Scherf et al.
# Submitted via: CDex 1.51
#
DISCID=2f041104
DTITLE=小松未歩 - 風がそよぐ場所
DYEAR=1999
DGENRE=JPop
TTITLE0=風がそよぐ場所
TTITLE1=elephant
TTITLE2=風がそよぐ場所 (original karaoke)
TTITLE3=elephant (original karaoke)
EXTD=YEAR: 1999
EXTT0=
EXTT1=
EXTT2=
EXTT3=
PLAYORDER=
